<?xml version="1.0" encoding="UTF-8"?><svg xmlns="http://www.w3.org/2000/svg" xmlns:xlink="http://www.w3.org/1999/xlink" fill-opacity="1" color-rendering="auto" color-interpolation="auto" text-rendering="auto" stroke="black" stroke-linecap="square" width="344" stroke-miterlimit="10" shape-rendering="auto" stroke-opacity="1" fill="black" stroke-dasharray="none" font-weight="normal" stroke-width="1" height="494" font-family="'Dialog'" font-style="normal" stroke-linejoin="miter" font-size="12px" stroke-dashoffset="0" image-rendering="auto">
  <!--Generated by ySVG 2.5-->
  <defs id="genericDefs"/>
  <g>
    <defs id="defs1">
      <clipPath clipPathUnits="userSpaceOnUse" id="clipPath1">
        <path d="M0 0 L344 0 L344 494 L0 494 L0 0 Z"/>
      </clipPath>
      <clipPath clipPathUnits="userSpaceOnUse" id="clipPath2">
        <path d="M492 81 L836 81 L836 575 L492 575 L492 81 Z"/>
      </clipPath>
    </defs>
    <g fill="white" text-rendering="geometricPrecision" shape-rendering="geometricPrecision" transform="translate(-492,-81)" stroke="white">
      <rect x="492" width="344" height="494" y="81" clip-path="url(#clipPath2)" stroke="none"/>
    </g>
    <g fill="rgb(255,102,0)" text-rendering="geometricPrecision" shape-rendering="geometricPrecision" transform="matrix(1,0,0,1,-492,-81)" stroke="rgb(255,102,0)">
      <circle r="15" clip-path="url(#clipPath2)" cx="624" cy="111" stroke="none"/>
    </g>
    <g text-rendering="geometricPrecision" stroke-miterlimit="1.45" shape-rendering="geometricPrecision" transform="matrix(1,0,0,1,-492,-81)" stroke-linecap="butt">
      <circle fill="none" r="15" clip-path="url(#clipPath2)" cx="624" cy="111"/>
      <text x="608.71" xml:space="preserve" y="115.1543" clip-path="url(#clipPath2)" font-family="sans-serif" stroke="none">Solar</text>
    </g>
    <g fill="rgb(255,204,0)" text-rendering="geometricPrecision" shape-rendering="geometricPrecision" transform="matrix(1,0,0,1,-492,-81)" stroke="rgb(255,204,0)">
      <circle r="15" clip-path="url(#clipPath2)" cx="530" cy="183" stroke="none"/>
    </g>
    <g text-rendering="geometricPrecision" stroke-miterlimit="1.45" shape-rendering="geometricPrecision" transform="matrix(1,0,0,1,-492,-81)" stroke-linecap="butt">
      <circle fill="none" r="15" clip-path="url(#clipPath2)" cx="530" cy="183"/>
      <text x="509.2754" xml:space="preserve" y="187.1543" clip-path="url(#clipPath2)" font-family="sans-serif" stroke="none">R(SOL)</text>
    </g>
    <g fill="rgb(255,204,0)" text-rendering="geometricPrecision" shape-rendering="geometricPrecision" transform="matrix(1,0,0,1,-492,-81)" stroke="rgb(255,204,0)">
      <rect x="515" width="30" height="30" y="233" clip-path="url(#clipPath2)" stroke="none"/>
    </g>
    <g text-rendering="geometricPrecision" stroke-miterlimit="1.45" shape-rendering="geometricPrecision" transform="matrix(1,0,0,1,-492,-81)" stroke-linecap="butt">
      <rect fill="none" x="515" width="30" height="30" y="233" clip-path="url(#clipPath2)"/>
      <text x="518.126" xml:space="preserve" y="252.1543" clip-path="url(#clipPath2)" font-family="sans-serif" stroke="none">SOL</text>
    </g>
    <g fill="rgb(255,204,0)" text-rendering="geometricPrecision" shape-rendering="geometricPrecision" transform="matrix(1,0,0,1,-492,-81)" stroke="rgb(255,204,0)">
      <circle r="15" clip-path="url(#clipPath2)" cx="707" cy="183" stroke="none"/>
    </g>
    <g text-rendering="geometricPrecision" stroke-miterlimit="1.45" shape-rendering="geometricPrecision" transform="matrix(1,0,0,1,-492,-81)" stroke-linecap="butt">
      <circle fill="none" r="15" clip-path="url(#clipPath2)" cx="707" cy="183"/>
      <text x="644.9287" xml:space="preserve" y="187.1543" clip-path="url(#clipPath2)" font-family="sans-serif" stroke="none">R(translação TERRA)</text>
    </g>
    <g fill="rgb(255,102,0)" text-rendering="geometricPrecision" shape-rendering="geometricPrecision" transform="matrix(1,0,0,1,-492,-81)" stroke="rgb(255,102,0)">
      <circle r="15" clip-path="url(#clipPath2)" cx="707" cy="255" stroke="none"/>
    </g>
    <g text-rendering="geometricPrecision" stroke-miterlimit="1.45" shape-rendering="geometricPrecision" transform="matrix(1,0,0,1,-492,-81)" stroke-linecap="butt">
      <circle fill="none" r="15" clip-path="url(#clipPath2)" cx="707" cy="255"/>
      <text x="703.335" xml:space="preserve" y="259.1543" clip-path="url(#clipPath2)" font-family="sans-serif" stroke="none">T</text>
    </g>
    <g fill="rgb(255,102,0)" text-rendering="geometricPrecision" shape-rendering="geometricPrecision" transform="matrix(1,0,0,1,-492,-81)" stroke="rgb(255,102,0)">
      <circle r="15" clip-path="url(#clipPath2)" cx="624" cy="296.0267" stroke="none"/>
    </g>
    <g text-rendering="geometricPrecision" stroke-miterlimit="1.45" shape-rendering="geometricPrecision" transform="matrix(1,0,0,1,-492,-81)" stroke-linecap="butt">
      <circle fill="none" r="15" clip-path="url(#clipPath2)" cx="624" cy="296.0267"/>
      <text x="568.8281" xml:space="preserve" y="300.181" clip-path="url(#clipPath2)" font-family="sans-serif" stroke="none">R(Rotação TERRA)</text>
    </g>
    <g fill="rgb(255,204,0)" text-rendering="geometricPrecision" shape-rendering="geometricPrecision" transform="matrix(1,0,0,1,-492,-81)" stroke="rgb(255,204,0)">
      <rect x="549" width="30" height="30" y="419.0267" clip-path="url(#clipPath2)" stroke="none"/>
    </g>
    <g text-rendering="geometricPrecision" stroke-miterlimit="1.45" shape-rendering="geometricPrecision" transform="matrix(1,0,0,1,-492,-81)" stroke-linecap="butt">
      <rect fill="none" x="549" width="30" height="30" y="419.0267" clip-path="url(#clipPath2)"/>
      <text x="544.1016" xml:space="preserve" y="438.181" clip-path="url(#clipPath2)" font-family="sans-serif" stroke="none">TERRA</text>
    </g>
    <g fill="rgb(255,204,0)" text-rendering="geometricPrecision" shape-rendering="geometricPrecision" transform="matrix(1,0,0,1,-492,-81)" stroke="rgb(255,204,0)">
      <circle r="15" clip-path="url(#clipPath2)" cx="688.6178" cy="358.0267" stroke="none"/>
    </g>
    <g text-rendering="geometricPrecision" stroke-miterlimit="1.45" shape-rendering="geometricPrecision" transform="matrix(1,0,0,1,-492,-81)" stroke-linecap="butt">
      <circle fill="none" r="15" clip-path="url(#clipPath2)" cx="688.6178" cy="358.0267"/>
      <text x="668.1891" xml:space="preserve" y="362.181" clip-path="url(#clipPath2)" font-family="sans-serif" stroke="none">R(SAT)</text>
    </g>
    <g fill="rgb(255,204,0)" text-rendering="geometricPrecision" shape-rendering="geometricPrecision" transform="matrix(1,0,0,1,-492,-81)" stroke="rgb(255,204,0)">
      <circle r="15" clip-path="url(#clipPath2)" cx="688.6178" cy="420.0267" stroke="none"/>
    </g>
    <g text-rendering="geometricPrecision" stroke-miterlimit="1.45" shape-rendering="geometricPrecision" transform="matrix(1,0,0,1,-492,-81)" stroke-linecap="butt">
      <circle fill="none" r="15" clip-path="url(#clipPath2)" cx="688.6178" cy="420.0267"/>
      <text x="684.9528" xml:space="preserve" y="424.181" clip-path="url(#clipPath2)" font-family="sans-serif" stroke="none">T</text>
    </g>
    <g fill="rgb(255,204,0)" text-rendering="geometricPrecision" shape-rendering="geometricPrecision" transform="matrix(1,0,0,1,-492,-81)" stroke="rgb(255,204,0)">
      <circle r="15" clip-path="url(#clipPath2)" cx="688.6178" cy="482.0267" stroke="none"/>
    </g>
    <g text-rendering="geometricPrecision" stroke-miterlimit="1.45" shape-rendering="geometricPrecision" transform="matrix(1,0,0,1,-492,-81)" stroke-linecap="butt">
      <circle fill="none" r="15" clip-path="url(#clipPath2)" cx="688.6178" cy="482.0267"/>
      <text x="684.8268" xml:space="preserve" y="486.181" clip-path="url(#clipPath2)" font-family="sans-serif" stroke="none">E</text>
    </g>
    <g fill="rgb(255,204,0)" text-rendering="geometricPrecision" shape-rendering="geometricPrecision" transform="matrix(1,0,0,1,-492,-81)" stroke="rgb(255,204,0)">
      <rect x="673.6178" width="30" height="30" y="529.0267" clip-path="url(#clipPath2)" stroke="none"/>
    </g>
    <g text-rendering="geometricPrecision" stroke-miterlimit="1.45" shape-rendering="geometricPrecision" transform="matrix(1,0,0,1,-492,-81)" stroke-linecap="butt">
      <rect fill="none" x="673.6178" width="30" height="30" y="529.0267" clip-path="url(#clipPath2)"/>
      <text x="660.6803" xml:space="preserve" y="548.181" clip-path="url(#clipPath2)" font-family="sans-serif" stroke="none">SATELITE</text>
    </g>
    <g fill="rgb(255,204,0)" text-rendering="geometricPrecision" shape-rendering="geometricPrecision" transform="matrix(1,0,0,1,-492,-81)" stroke="rgb(255,204,0)">
      <circle r="15" clip-path="url(#clipPath2)" cx="797.3333" cy="296.0267" stroke="none"/>
    </g>
    <g text-rendering="geometricPrecision" stroke-miterlimit="1.45" shape-rendering="geometricPrecision" transform="matrix(1,0,0,1,-492,-81)" stroke-linecap="butt">
      <circle fill="none" r="15" clip-path="url(#clipPath2)" cx="797.3333" cy="296.0267"/>
      <text x="776.6439" xml:space="preserve" y="300.181" clip-path="url(#clipPath2)" font-family="sans-serif" stroke="none">R(LUA)</text>
    </g>
    <g fill="rgb(255,204,0)" text-rendering="geometricPrecision" shape-rendering="geometricPrecision" transform="matrix(1,0,0,1,-492,-81)" stroke="rgb(255,204,0)">
      <circle r="15" clip-path="url(#clipPath2)" cx="797.3333" cy="358.0267" stroke="none"/>
    </g>
    <g text-rendering="geometricPrecision" stroke-miterlimit="1.45" shape-rendering="geometricPrecision" transform="matrix(1,0,0,1,-492,-81)" stroke-linecap="butt">
      <circle fill="none" r="15" clip-path="url(#clipPath2)" cx="797.3333" cy="358.0267"/>
      <text x="793.6683" xml:space="preserve" y="362.181" clip-path="url(#clipPath2)" font-family="sans-serif" stroke="none">T</text>
    </g>
    <g fill="rgb(255,204,0)" text-rendering="geometricPrecision" shape-rendering="geometricPrecision" transform="matrix(1,0,0,1,-492,-81)" stroke="rgb(255,204,0)">
      <circle r="15" clip-path="url(#clipPath2)" cx="797.3333" cy="420.0267" stroke="none"/>
    </g>
    <g text-rendering="geometricPrecision" stroke-miterlimit="1.45" shape-rendering="geometricPrecision" transform="matrix(1,0,0,1,-492,-81)" stroke-linecap="butt">
      <circle fill="none" r="15" clip-path="url(#clipPath2)" cx="797.3333" cy="420.0267"/>
      <text x="793.5423" xml:space="preserve" y="424.181" clip-path="url(#clipPath2)" font-family="sans-serif" stroke="none">E</text>
    </g>
    <g fill="rgb(255,204,0)" text-rendering="geometricPrecision" shape-rendering="geometricPrecision" transform="matrix(1,0,0,1,-492,-81)" stroke="rgb(255,204,0)">
      <rect x="782.3333" width="30" height="30" y="467.0267" clip-path="url(#clipPath2)" stroke="none"/>
    </g>
    <g text-rendering="geometricPrecision" stroke-miterlimit="1.45" shape-rendering="geometricPrecision" transform="matrix(1,0,0,1,-492,-81)" stroke-linecap="butt">
      <rect fill="none" x="782.3333" width="30" height="30" y="467.0267" clip-path="url(#clipPath2)"/>
      <text x="785.4944" xml:space="preserve" y="486.181" clip-path="url(#clipPath2)" font-family="sans-serif" stroke="none">LUA</text>
    </g>
    <g fill="rgb(255,204,0)" text-rendering="geometricPrecision" shape-rendering="geometricPrecision" transform="matrix(1,0,0,1,-492,-81)" stroke="rgb(255,204,0)">
      <circle r="15" clip-path="url(#clipPath2)" cx="564" cy="358.0267" stroke="none"/>
    </g>
    <g text-rendering="geometricPrecision" stroke-miterlimit="1.45" shape-rendering="geometricPrecision" transform="matrix(1,0,0,1,-492,-81)" stroke-linecap="butt">
      <circle fill="none" r="15" clip-path="url(#clipPath2)" cx="564" cy="358.0267"/>
      <text x="560.209" xml:space="preserve" y="362.181" clip-path="url(#clipPath2)" font-family="sans-serif" stroke="none">E</text>
      <path fill="none" d="M612.0919 120.1212 L548.2592 169.0142" clip-path="url(#clipPath2)"/>
      <path d="M541.9081 173.8788 L554.4751 170.5513 L549.053 168.4062 L548.3943 162.6125 Z" clip-path="url(#clipPath2)" stroke="none"/>
      <path fill="none" d="M530 198 L530 225" clip-path="url(#clipPath2)"/>
      <path d="M530 233 L535 221 L530 224 L525 221 Z" clip-path="url(#clipPath2)" stroke="none"/>
      <path fill="none" d="M635.3308 120.8292 L689.626 167.9286" clip-path="url(#clipPath2)"/>
      <path d="M695.6692 173.1708 L689.8809 161.5306 L688.8707 167.2734 L683.3281 169.0845 Z" clip-path="url(#clipPath2)" stroke="none"/>
      <path fill="none" d="M707 198 L707 232" clip-path="url(#clipPath2)"/>
      <path d="M707 240 L712 228 L707 231 L702 228 Z" clip-path="url(#clipPath2)" stroke="none"/>
      <path fill="none" d="M693.553 261.6468 L644.6187 285.8349" clip-path="url(#clipPath2)"/>
      <path d="M637.447 289.3799 L650.4201 288.5448 L645.5151 285.3918 L645.9889 279.5801 Z" clip-path="url(#clipPath2)" stroke="none"/>
      <path fill="none" d="M634.8235 306.4118 L672.0216 342.1028" clip-path="url(#clipPath2)"/>
      <path d="M677.7942 347.6416 L672.597 335.7256 L671.3 341.4105 L665.6736 342.9413 Z" clip-path="url(#clipPath2)" stroke="none"/>
      <path fill="none" d="M688.6178 373.0267 L688.6178 397.0267" clip-path="url(#clipPath2)"/>
      <path d="M688.6178 405.0267 L693.6178 393.0267 L688.6178 396.0267 L683.6178 393.0267 Z" clip-path="url(#clipPath2)" stroke="none"/>
      <path fill="none" d="M688.6178 435.0267 L688.6178 459.0267" clip-path="url(#clipPath2)"/>
      <path d="M688.6178 467.0267 L693.6178 455.0267 L688.6178 458.0267 L683.6178 455.0267 Z" clip-path="url(#clipPath2)" stroke="none"/>
      <path fill="none" d="M688.6178 497.0267 L688.6178 521.0267" clip-path="url(#clipPath2)"/>
      <path d="M688.6178 529.0267 L693.6178 517.0267 L688.6178 520.0267 L683.6178 517.0267 Z" clip-path="url(#clipPath2)" stroke="none"/>
      <path fill="none" d="M720.6574 261.2028 L776.392 286.5157" clip-path="url(#clipPath2)"/>
      <path d="M783.6759 289.8239 L774.8176 280.3091 L775.4814 286.1022 L770.6824 289.4141 Z" clip-path="url(#clipPath2)" stroke="none"/>
      <path fill="none" d="M797.3333 311.0267 L797.3333 335.0267" clip-path="url(#clipPath2)"/>
      <path d="M797.3333 343.0267 L802.3333 331.0267 L797.3333 334.0267 L792.3333 331.0267 Z" clip-path="url(#clipPath2)" stroke="none"/>
      <path fill="none" d="M797.3333 373.0267 L797.3333 397.0267" clip-path="url(#clipPath2)"/>
      <path d="M797.3333 405.0267 L802.3333 393.0267 L797.3333 396.0267 L792.3333 393.0267 Z" clip-path="url(#clipPath2)" stroke="none"/>
      <path fill="none" d="M797.3333 435.0267 L797.3333 459.0267" clip-path="url(#clipPath2)"/>
      <path d="M797.3333 467.0267 L802.3333 455.0267 L797.3333 458.0267 L792.3333 455.0267 Z" clip-path="url(#clipPath2)" stroke="none"/>
      <path fill="none" d="M613.5687 306.8057 L579.9947 341.4988" clip-path="url(#clipPath2)"/>
      <path d="M574.4313 347.2476 L586.3694 342.1015 L580.6901 340.7802 L579.1833 335.1473 Z" clip-path="url(#clipPath2)" stroke="none"/>
      <path fill="none" d="M564 373.0267 L564 411.0267" clip-path="url(#clipPath2)"/>
      <path d="M564 419.0267 L569 407.0267 L564 410.0267 L559 407.0267 Z" clip-path="url(#clipPath2)" stroke="none"/>
    </g>
  </g>
</svg>
